<svg width="400" height="400" viewBox="0 0 400 400" fill="none" xmlns="http://www.w3.org/2000/svg">
<circle cx="200" cy="200" r="200" fill="white"/>
<path d="M140.477 266.552H81.8517C81.8517 259.427 82.9038 251.968 85.0184 244.177C87.1277 236.385 89.8621 228.666 93.2267 221.01C96.6017 213.343 100.169 206.15 103.935 199.427C107.695 192.692 111.232 186.812 114.539 181.781C116.774 178.354 119.211 174.921 121.852 171.489C124.487 168.062 127.065 164.76 129.581 161.593C127.065 153.275 124.623 147.005 122.248 142.781C119.873 138.562 116.44 136.447 111.956 136.447V131.281C121.982 131.281 130.794 132.609 138.393 135.26C145.987 137.9 152.524 141.4 157.998 145.76C163.482 150.109 168.003 154.989 171.56 160.406C175.128 165.822 177.836 171.302 179.685 176.843C183.904 189.51 187.404 201.588 190.185 213.072C192.961 224.562 196.331 234.927 200.289 244.177C202.789 249.859 206.185 252.999 210.477 253.593C214.768 254.177 218.498 252.817 221.664 249.51L225.039 253.093C221.081 258.635 216.227 262.499 210.477 264.677C204.737 266.854 199.362 267.947 194.352 267.947C187.086 267.947 180.518 266.166 174.643 262.593C168.768 259.025 163.779 254.374 159.685 248.635C155.586 242.885 152.419 236.775 150.185 230.302H120.664C122.914 237.442 125.789 244.177 129.289 250.51C132.789 256.843 136.518 262.192 140.477 266.552ZM148.602 225.552C145.685 216.442 142.81 206.739 139.977 196.447C137.143 186.145 134.274 176.374 131.373 167.135C130.175 168.859 128.982 170.51 127.789 172.093C126.607 173.677 125.419 175.395 124.227 177.239C119.737 183.979 117.294 191.604 116.893 200.114C116.503 208.63 117.362 217.109 119.477 225.552H148.602Z" fill="black"/>
<mask id="mask0_1_153" style="mask-type:luminance" maskUnits="userSpaceOnUse" x="47" y="153" width="123" height="150">
<path d="M47.3333 153H170V302.333H47.3333V153Z" fill="white"/>
</mask>
<g mask="url(#mask0_1_153)">
<mask id="mask1_1_153" style="mask-type:luminance" maskUnits="userSpaceOnUse" x="48" y="150" width="122" height="156">
<path d="M48.25 162.547L153.844 150.948L169.521 293.672L63.9271 305.271L48.25 162.547Z" fill="white"/>
</mask>
<g mask="url(#mask1_1_153)">
<mask id="mask2_1_153" style="mask-type:luminance" maskUnits="userSpaceOnUse" x="48" y="153" width="122" height="150">
<path d="M127.443 153.849L48.25 162.547L90.3177 302.302L169.516 293.604L127.443 153.849Z" fill="white"/>
</mask>
<g mask="url(#mask2_1_153)">
<mask id="mask3_1_153" style="mask-type:luminance" maskUnits="userSpaceOnUse" x="47" y="153" width="123" height="150">
<path d="M170 153H47.3333V302.333H170V153Z" fill="white"/>
</mask>
<g mask="url(#mask3_1_153)">
<mask id="mask4_1_153" style="mask-type:luminance" maskUnits="userSpaceOnUse" x="48" y="153" width="122" height="150">
<path d="M48.2396 153.641H169.521V302.333H48.2396V153.641Z" fill="white"/>
</mask>
<g mask="url(#mask4_1_153)">
<mask id="mask5_1_153" style="mask-type:luminance" maskUnits="userSpaceOnUse" x="48" y="150" width="122" height="156">
<path d="M48.25 162.547L153.844 150.948L169.521 293.672L63.9271 305.271L48.25 162.547Z" fill="white"/>
</mask>
<g mask="url(#mask5_1_153)">
<mask id="mask6_1_153" style="mask-type:luminance" maskUnits="userSpaceOnUse" x="48" y="153" width="122" height="150">
<path d="M127.443 153.849L48.25 162.547L90.3177 302.302L169.516 293.604L127.443 153.849Z" fill="white"/>
</mask>
<g mask="url(#mask6_1_153)">
<path d="M48.25 162.547L153.844 150.948L169.521 293.672L63.9271 305.271L48.25 162.547Z" fill="white"/>
</g>
</g>
</g>
</g>
</g>
</g>
</g>
<path d="M292.618 181.197C287.743 181.197 283.353 180.083 279.452 177.843C275.561 175.593 271.962 172.755 268.66 169.322C265.368 165.88 262.295 162.343 259.452 158.718C256.618 155.093 253.811 151.927 251.035 149.218C248.269 146.51 245.431 144.729 242.514 143.864C239.608 143.005 236.514 143.63 233.222 145.739C229.389 148.114 227.399 152.671 227.264 159.406C227.139 166.145 228.691 174.166 231.931 183.468C235.165 192.775 239.816 202.38 245.889 212.281C252.483 222.713 259.347 231.333 266.472 238.135C273.608 244.927 280.347 249.052 286.681 250.51C292.623 251.968 298.035 251.739 302.91 249.822C307.795 247.906 312.16 244.937 315.993 240.906C319.827 236.88 322.931 232.552 325.306 227.927L329.264 230.114C325.691 237.505 320.639 244.072 314.097 249.822C307.566 255.562 300.212 260.02 292.035 263.197C283.853 266.364 275.337 267.947 266.493 267.947C257.243 267.947 248.556 266.166 240.431 262.593C232.316 259.025 225.191 254.109 219.056 247.843C212.915 241.567 208.097 234.302 204.597 226.052C201.097 217.802 199.347 208.921 199.347 199.406C199.347 189.906 201.097 181.031 204.597 172.781C208.097 164.531 212.915 157.275 219.056 151.01C225.191 144.734 232.316 139.843 240.431 136.343C248.556 132.843 257.243 131.093 266.493 131.093C271.504 131.093 276.056 131.859 280.139 133.385C284.233 134.9 287.998 136.677 291.431 138.718C294.873 140.76 298.045 142.546 300.952 144.072C303.853 145.588 306.556 146.343 309.056 146.343C313.941 146.343 317.144 145.062 318.66 142.489C320.186 139.906 320.952 136.437 320.952 132.072H325.306C326.097 137.489 326.191 143.072 325.597 148.822C324.998 154.562 323.514 159.874 321.139 164.76C318.764 169.65 315.264 173.614 310.639 176.656C306.024 179.687 300.019 181.197 292.618 181.197Z" fill="#818CF8"/>
<mask id="mask7_1_153" style="mask-type:luminance" maskUnits="userSpaceOnUse" x="234" y="39" width="140" height="154">
<path d="M234 39.6667H374V193H234V39.6667Z" fill="white"/>
</mask>
<g mask="url(#mask7_1_153)">
<mask id="mask8_1_153" style="mask-type:luminance" maskUnits="userSpaceOnUse" x="234" y="34" width="140" height="165">
<path d="M234.656 58.2604L341.948 34L373.594 173.984L266.302 198.24L234.656 58.2604Z" fill="white"/>
</mask>
<g mask="url(#mask8_1_153)">
<mask id="mask9_1_153" style="mask-type:luminance" maskUnits="userSpaceOnUse" x="234" y="39" width="140" height="154">
<path d="M316.042 39.8594L234.656 58.2604L292.208 192.38L373.594 173.979L316.042 39.8594Z" fill="white"/>
</mask>
<g mask="url(#mask9_1_153)">
<mask id="mask10_1_153" style="mask-type:luminance" maskUnits="userSpaceOnUse" x="234" y="39" width="140" height="154">
<path d="M374 39.6667H234V193H374V39.6667Z" fill="white"/>
</mask>
<g mask="url(#mask10_1_153)">
<mask id="mask11_1_153" style="mask-type:luminance" maskUnits="userSpaceOnUse" x="234" y="39" width="140" height="154">
<path d="M234.479 39.7188H373.682V192.682H234.479V39.7188Z" fill="white"/>
</mask>
<g mask="url(#mask11_1_153)">
<mask id="mask12_1_153" style="mask-type:luminance" maskUnits="userSpaceOnUse" x="234" y="34" width="140" height="165">
<path d="M234.656 58.2604L341.948 34L373.594 173.984L266.302 198.24L234.656 58.2604Z" fill="white"/>
</mask>
<g mask="url(#mask12_1_153)">
<mask id="mask13_1_153" style="mask-type:luminance" maskUnits="userSpaceOnUse" x="234" y="39" width="140" height="154">
<path d="M316.042 39.8594L234.656 58.2604L292.208 192.38L373.594 173.979L316.042 39.8594Z" fill="white"/>
</mask>
<g mask="url(#mask13_1_153)">
<path d="M234.656 58.2604L341.948 34L373.594 173.984L266.302 198.24L234.656 58.2604Z" fill="white"/>
</g>
</g>
</g>
</g>
</g>
</g>
</g>
<path d="M88.5949 270.526H29.9699C29.9699 263.401 31.022 255.943 33.1365 248.151C35.2459 240.36 37.9803 232.641 41.3449 224.985C44.7199 217.318 48.2876 210.125 52.0532 203.401C55.8136 196.667 59.3501 190.787 62.6574 185.755C64.8918 182.328 67.3293 178.896 69.9699 175.464C72.6053 172.037 75.1834 168.735 77.6991 165.568C75.1834 157.25 72.7407 150.979 70.3657 146.755C67.9907 142.537 64.5584 140.422 60.0741 140.422V135.255C70.1001 135.255 78.9126 136.584 86.5116 139.235C94.1053 141.875 100.642 145.375 106.116 149.735C111.6 154.084 116.121 158.964 119.678 164.38C123.246 169.797 125.954 175.276 127.803 180.818C132.022 193.485 135.522 205.563 138.303 217.047C141.079 228.537 144.449 238.901 148.407 248.151C150.907 253.834 154.303 256.974 158.595 257.568C162.887 258.151 166.616 256.792 169.782 253.485L173.157 257.068C169.199 262.61 164.345 266.474 158.595 268.651C152.855 270.828 147.48 271.922 142.47 271.922C135.204 271.922 128.637 270.141 122.762 266.568C116.887 263 111.897 258.349 107.803 252.61C103.704 246.86 100.538 240.75 98.3032 234.276H68.7824C71.0324 241.417 73.9074 248.151 77.4074 254.485C80.9074 260.818 84.6366 266.167 88.5949 270.526ZM96.7199 229.526C93.8032 220.417 90.9282 210.714 88.0949 200.422C85.2616 190.12 82.3918 180.349 79.4907 171.11C78.2928 172.834 77.1001 174.485 75.9074 176.068C74.7251 177.651 73.5376 179.37 72.3449 181.214C67.8553 187.953 65.4126 195.578 65.0116 204.089C64.6209 212.604 65.4803 221.084 67.5949 229.526H96.7199Z" fill="black"/>
<mask id="mask14_1_153" style="mask-type:luminance" maskUnits="userSpaceOnUse" x="6" y="155" width="100" height="156">
<path d="M6 155.667H106V310.333H6V155.667Z" fill="white"/>
</mask>
<g mask="url(#mask14_1_153)">
<mask id="mask15_1_153" style="mask-type:luminance" maskUnits="userSpaceOnUse" x="-1" y="156" width="115" height="154">
<path d="M74.8385 156.609L113.76 287.177L37.9635 309.771L-0.958332 179.203L74.8385 156.609Z" fill="white"/>
</mask>
<g mask="url(#mask15_1_153)">
<mask id="mask16_1_153" style="mask-type:luminance" maskUnits="userSpaceOnUse" x="7" y="156" width="99" height="154">
<path d="M105.745 260.292L74.8385 156.609L7.03125 206.005L37.9375 309.688L105.745 260.292Z" fill="white"/>
</mask>
<g mask="url(#mask16_1_153)">
<mask id="mask17_1_153" style="mask-type:luminance" maskUnits="userSpaceOnUse" x="6" y="155" width="100" height="156">
<path d="M106 155.667H6V310.333H106V155.667Z" fill="white"/>
</mask>
<g mask="url(#mask17_1_153)">
<mask id="mask18_1_153" style="mask-type:luminance" maskUnits="userSpaceOnUse" x="6" y="156" width="100" height="154">
<path d="M6.95834 156.521H105.839V309.802H6.95834V156.521Z" fill="white"/>
</mask>
<g mask="url(#mask18_1_153)">
<mask id="mask19_1_153" style="mask-type:luminance" maskUnits="userSpaceOnUse" x="-1" y="156" width="115" height="154">
<path d="M74.8385 156.609L113.76 287.177L37.9635 309.771L-0.958332 179.203L74.8385 156.609Z" fill="white"/>
</mask>
<g mask="url(#mask19_1_153)">
<mask id="mask20_1_153" style="mask-type:luminance" maskUnits="userSpaceOnUse" x="7" y="156" width="99" height="154">
<path d="M105.745 260.292L74.8385 156.609L7.03125 206.005L37.9375 309.688L105.745 260.292Z" fill="white"/>
</mask>
<g mask="url(#mask20_1_153)">
<path d="M74.8385 156.609L113.76 287.177L37.9635 309.771L-0.958332 179.203L74.8385 156.609Z" fill="white"/>
</g>
</g>
</g>
</g>
</g>
</g>
</g>
</svg>
