<svg width="201" height="198" viewBox="0 0 201 198" fill="none" xmlns="http://www.w3.org/2000/svg">
<rect width="200" height="198" fill="#1E293B"/>
<path d="M73.1271 123.378H41.2473C41.2473 119.504 41.8194 115.448 42.9693 111.211C44.1164 106.974 45.6033 102.776 47.4329 98.6129C49.2682 94.4439 51.2083 90.5325 53.256 86.8761C55.3009 83.214 57.224 80.0164 59.0225 77.2804C60.2375 75.4168 61.563 73.5504 62.999 71.6839C64.4321 69.8203 65.8341 68.0247 67.202 66.3027C65.8341 61.7796 64.5057 58.3695 63.2142 56.0726C61.9227 53.7785 60.0563 52.6286 57.6177 52.6286V49.819C63.0698 49.819 67.8619 50.5412 71.9942 51.9828C76.1236 53.4188 79.6781 55.322 82.6548 57.6926C85.6371 60.0575 88.0955 62.7114 90.03 65.6569C91.97 68.6024 93.4428 71.582 94.4483 74.5955C96.7424 81.4835 98.6457 88.0515 100.158 94.2966C101.668 100.545 103.5 106.181 105.653 111.211C107.012 114.301 108.859 116.009 111.193 116.331C113.526 116.649 115.554 115.909 117.276 114.111L119.111 116.06C116.959 119.073 114.319 121.175 111.193 122.359C108.071 123.542 105.148 124.137 102.424 124.137C98.4729 124.137 94.9014 123.169 91.7066 121.226C88.5119 119.286 85.7986 116.756 83.5724 113.635C81.3434 110.508 79.6214 107.186 78.4064 103.666H62.3532C63.5768 107.549 65.1402 111.211 67.0434 114.655C68.9467 118.099 70.9746 121.008 73.1271 123.378ZM77.5454 101.083C75.9593 96.1291 74.3959 90.8526 72.8552 85.2561C71.3145 79.6539 69.7539 74.3406 68.1763 69.3162C67.5249 70.2536 66.8763 71.1515 66.2277 72.0125C65.5848 72.8735 64.9391 73.8081 64.2905 74.8107C61.8491 78.4757 60.5208 82.6221 60.3027 87.25C60.0903 91.8807 60.5576 96.4916 61.7075 101.083H77.5454Z" fill="white"/>
<mask id="mask0_12_2" style="mask-type:luminance" maskUnits="userSpaceOnUse" x="22" y="61" width="68" height="82">
<path d="M22.4768 61.6298H89.1819V142.836H22.4768V61.6298Z" fill="white"/>
</mask>
<g mask="url(#mask0_12_2)">
<mask id="mask1_12_2" style="mask-type:luminance" maskUnits="userSpaceOnUse" x="22" y="60" width="67" height="85">
<path d="M22.9753 66.8213L80.3963 60.5139L88.9214 138.126L31.5004 144.433L22.9753 66.8213Z" fill="white"/>
</mask>
<g mask="url(#mask1_12_2)">
<mask id="mask2_12_2" style="mask-type:luminance" maskUnits="userSpaceOnUse" x="22" y="62" width="67" height="81">
<path d="M66.0397 62.0914L22.9753 66.8213L45.8514 142.819L88.9186 138.089L66.0397 62.0914Z" fill="white"/>
</mask>
<g mask="url(#mask2_12_2)">
<mask id="mask3_12_2" style="mask-type:luminance" maskUnits="userSpaceOnUse" x="22" y="61" width="68" height="82">
<path d="M89.1822 61.6298H22.4771V142.836H89.1822V61.6298Z" fill="white"/>
</mask>
<g mask="url(#mask3_12_2)">
<mask id="mask4_12_2" style="mask-type:luminance" maskUnits="userSpaceOnUse" x="22" y="61" width="67" height="82">
<path d="M22.97 61.9781H88.9217V142.836H22.97V61.9781Z" fill="white"/>
</mask>
<g mask="url(#mask4_12_2)">
<mask id="mask5_12_2" style="mask-type:luminance" maskUnits="userSpaceOnUse" x="22" y="60" width="67" height="85">
<path d="M22.9756 66.8213L80.3966 60.5139L88.9217 138.126L31.5007 144.433L22.9756 66.8213Z" fill="white"/>
</mask>
<g mask="url(#mask5_12_2)">
<mask id="mask6_12_2" style="mask-type:luminance" maskUnits="userSpaceOnUse" x="22" y="62" width="67" height="81">
<path d="M66.0399 62.0914L22.9756 66.8213L45.8517 142.819L88.9188 138.089L66.0399 62.0914Z" fill="white"/>
</mask>
<g mask="url(#mask6_12_2)">
<path d="M22.9756 66.8213L80.3966 60.5139L88.9217 138.126L31.5007 144.433L22.9756 66.8213Z" fill="#1E293B"/>
</g>
</g>
</g>
</g>
</g>
</g>
</g>
<path d="M155.861 76.9633C153.21 76.9633 150.822 76.3572 148.701 75.1393C146.585 73.9158 144.628 72.3722 142.832 70.5057C141.042 68.6336 139.371 66.7105 137.825 64.7393C136.284 62.768 134.757 61.046 133.248 59.5733C131.744 58.1005 130.2 57.1319 128.614 56.6617C127.034 56.1944 125.352 56.5343 123.562 57.6813C121.477 58.9728 120.395 61.451 120.321 65.1131C120.254 68.7781 121.098 73.1397 122.859 78.1981C124.618 83.2594 127.147 88.482 130.45 93.8661C134.035 99.5391 137.768 104.226 141.643 107.925C145.523 111.619 149.188 113.862 152.632 114.655C155.863 115.448 158.806 115.323 161.457 114.281C164.114 113.239 166.487 111.624 168.572 109.432C170.656 107.243 172.344 104.889 173.636 102.374L175.788 103.564C173.845 107.583 171.098 111.154 167.541 114.281C163.989 117.402 159.99 119.827 155.543 121.554C151.094 123.276 146.463 124.137 141.654 124.137C136.624 124.137 131.9 123.169 127.481 121.226C123.069 119.286 119.194 116.612 115.858 113.205C112.519 109.792 109.899 105.841 107.996 101.355C106.092 96.8683 105.141 92.0393 105.141 86.8648C105.141 81.6988 106.092 76.8726 107.996 72.3864C109.899 67.9001 112.519 63.9548 115.858 60.5476C119.194 57.1347 123.069 54.4752 127.481 52.5719C131.9 50.6687 136.624 49.717 141.654 49.717C144.379 49.717 146.854 50.1334 149.074 50.9632C151.301 51.7874 153.348 52.7532 155.215 53.8635C157.087 54.9737 158.812 55.9452 160.392 56.775C161.97 57.5992 163.44 58.0099 164.799 58.0099C167.456 58.0099 169.198 57.3131 170.022 55.914C170.852 54.5092 171.268 52.6229 171.268 50.2495H173.636C174.066 53.195 174.117 56.2312 173.794 59.358C173.469 62.4792 172.661 65.368 171.37 68.0247C170.078 70.6842 168.175 72.8395 165.66 74.4935C163.151 76.1419 159.885 76.9633 155.861 76.9633Z" fill="#818CF8"/>
<mask id="mask7_12_2" style="mask-type:luminance" maskUnits="userSpaceOnUse" x="123" y="0" width="78" height="84">
<path d="M123.985 0H200.115V83.3814H123.985V0Z" fill="white"/>
</mask>
<g mask="url(#mask7_12_2)">
<mask id="mask8_12_2" style="mask-type:luminance" maskUnits="userSpaceOnUse" x="124" y="-4" width="76" height="91">
<path d="M124.341 10.1111L182.686 -3.08154L199.894 73.0408L141.55 86.2306L124.341 10.1111Z" fill="white"/>
</mask>
<g mask="url(#mask8_12_2)">
<mask id="mask9_12_2" style="mask-type:luminance" maskUnits="userSpaceOnUse" x="124" y="0" width="76" height="84">
<path d="M168.598 0.104736L124.341 10.1111L155.638 83.0443L199.894 73.038L168.598 0.104736Z" fill="white"/>
</mask>
<g mask="url(#mask9_12_2)">
<mask id="mask10_12_2" style="mask-type:luminance" maskUnits="userSpaceOnUse" x="123" y="0" width="78" height="84">
<path d="M200.115 0H123.985V83.3814H200.115V0Z" fill="white"/>
</mask>
<g mask="url(#mask10_12_2)">
<mask id="mask11_12_2" style="mask-type:luminance" maskUnits="userSpaceOnUse" x="124" y="0" width="76" height="84">
<path d="M124.245 0.0283203H199.943V83.2086H124.245V0.0283203Z" fill="white"/>
</mask>
<g mask="url(#mask11_12_2)">
<mask id="mask12_12_2" style="mask-type:luminance" maskUnits="userSpaceOnUse" x="124" y="-4" width="76" height="91">
<path d="M124.341 10.1111L182.686 -3.08154L199.894 73.0408L141.55 86.2306L124.341 10.1111Z" fill="white"/>
</mask>
<g mask="url(#mask12_12_2)">
<mask id="mask13_12_2" style="mask-type:luminance" maskUnits="userSpaceOnUse" x="124" y="0" width="76" height="84">
<path d="M168.598 0.104736L124.341 10.1111L155.638 83.0443L199.894 73.038L168.598 0.104736Z" fill="white"/>
</mask>
<g mask="url(#mask13_12_2)">
<path d="M124.341 10.1111L182.686 -3.08154L199.894 73.0408L141.55 86.2306L124.341 10.1111Z" fill="#1E293B"/>
</g>
</g>
</g>
</g>
</g>
</g>
</g>
<path d="M42.6684 145.336C42.4107 144.673 42.1756 144.178 41.966 143.852C41.7621 143.521 41.5723 143.291 41.3996 143.161C41.2325 143.025 41.0739 142.934 40.9237 142.889V142.628H43.756V142.889C43.5351 142.934 43.3963 143.025 43.3368 143.161C43.2745 143.291 43.2943 143.521 43.3935 143.852C43.4983 144.178 43.688 144.673 43.9599 145.336L45.3647 148.723L46.5656 145.404C46.829 144.665 46.9536 144.079 46.9394 143.648C46.9224 143.218 46.7384 142.965 46.3843 142.889V142.628H48.7521V142.889C48.5708 142.934 48.3811 143.031 48.1856 143.172C47.9959 143.308 47.8004 143.546 47.5965 143.886C47.3983 144.22 47.1802 144.719 46.9394 145.381L45.58 149.177L48.8767 157.107L53.0911 145.381C53.3545 144.656 53.4649 144.079 53.4196 143.648C53.38 143.218 53.1647 142.965 52.7739 142.889V142.628H55.2776V142.889C55.0963 142.934 54.9066 143.031 54.7111 143.172C54.5214 143.308 54.3259 143.546 54.122 143.886C53.9238 144.22 53.7057 144.719 53.4649 145.381L48.6388 158.772H48.2309L44.8436 150.57L41.4902 158.772H41.0824L35.9843 145.381C35.7407 144.719 35.5198 144.22 35.3159 143.886C35.1176 143.546 34.9364 143.308 34.7721 143.172C34.6135 143.031 34.4606 142.934 34.3076 142.889V142.628H37.2078V142.889C36.9869 142.934 36.8453 143.031 36.7773 143.172C36.7094 143.308 36.7207 143.546 36.8113 143.886C36.9076 144.22 37.0776 144.719 37.3211 145.381L41.7961 157.186L44.651 150.128L42.6684 145.336Z" fill="white"/>
<path d="M61.7222 158.999C61.0198 158.999 60.3117 158.88 59.6037 158.648C58.9013 158.407 58.2612 158.042 57.6891 157.549C57.1226 157.059 56.6638 156.444 56.3183 155.702C55.9699 154.954 55.7971 154.065 55.7971 153.028C55.7971 151.867 56.069 150.839 56.6128 149.947C57.1623 149.058 57.893 148.358 58.7993 147.851C59.7056 147.338 60.6799 147.081 61.7222 147.081C62.4472 147.081 63.1525 147.203 63.8407 147.443C64.5346 147.678 65.169 148.041 65.744 148.531C66.3246 149.015 66.7806 149.635 67.1148 150.389C67.4547 151.137 67.6246 152.026 67.6246 153.051C67.6246 154.042 67.4462 154.909 67.0921 155.657C66.7438 156.399 66.2764 157.013 65.6873 157.503C65.1039 157.996 64.4666 158.37 63.7727 158.625C63.0845 158.874 62.4019 158.999 61.7222 158.999ZM56.998 152.156C56.998 152.944 57.1254 153.717 57.3832 154.479C57.6466 155.235 58.0176 155.923 58.4934 156.54C58.9749 157.152 59.5385 157.645 60.1814 158.013C60.83 158.384 61.5353 158.568 62.3 158.568C63.1893 158.568 63.9455 158.364 64.5658 157.957C65.1917 157.549 65.6703 157.002 66.0045 156.314C66.3359 155.62 66.503 154.841 66.503 153.98C66.503 153.227 66.3699 152.468 66.1065 151.703C65.8403 150.933 65.4749 150.23 65.0076 149.596C64.5374 148.956 63.9795 148.44 63.3309 148.055C62.688 147.67 61.9856 147.477 61.2237 147.477C60.3174 147.477 59.547 147.681 58.9126 148.089C58.2838 148.497 57.808 149.058 57.4851 149.766C57.1594 150.468 56.998 151.267 56.998 152.156Z" fill="white"/>
<path d="M75.5252 158.999C74.8228 158.999 74.1147 158.88 73.4066 158.648C72.7042 158.407 72.0642 158.042 71.492 157.549C70.9256 157.059 70.4668 156.444 70.1212 155.702C69.7729 154.954 69.6001 154.065 69.6001 153.028C69.6001 151.867 69.872 150.839 70.4158 149.947C70.9652 149.058 71.696 148.358 72.6023 147.851C73.5086 147.338 74.4829 147.081 75.5252 147.081C76.2502 147.081 76.9554 147.203 77.6437 147.443C78.3376 147.678 78.972 148.041 79.547 148.531C80.1276 149.015 80.5836 149.635 80.9178 150.389C81.2576 151.137 81.4276 152.026 81.4276 153.051C81.4276 154.042 81.2491 154.909 80.8951 155.657C80.5467 156.399 80.0794 157.013 79.4903 157.503C78.9069 157.996 78.2696 158.37 77.5757 158.625C76.8875 158.874 76.2049 158.999 75.5252 158.999ZM70.801 152.156C70.801 152.944 70.9284 153.717 71.1862 154.479C71.4496 155.235 71.8206 155.923 72.2964 156.54C72.7779 157.152 73.3415 157.645 73.9844 158.013C74.633 158.384 75.3382 158.568 76.1029 158.568C76.9923 158.568 77.7485 158.364 78.3687 157.957C78.9947 157.549 79.4733 157.002 79.8075 156.314C80.1389 155.62 80.306 154.841 80.306 153.98C80.306 153.227 80.1729 152.468 79.9095 151.703C79.6432 150.933 79.2779 150.23 78.8106 149.596C78.3404 148.956 77.7825 148.44 77.1339 148.055C76.491 147.67 75.7886 147.477 75.0267 147.477C74.1204 147.477 73.35 147.681 72.7156 148.089C72.0868 148.497 71.611 149.058 71.2881 149.766C70.9624 150.468 70.801 151.267 70.801 152.156Z" fill="white"/>
<path d="M83.5276 158.772V158.523C83.7372 158.455 83.9128 158.35 84.0487 158.206C84.1903 158.064 84.2923 157.809 84.3546 157.447C84.4141 157.084 84.4452 156.552 84.4452 155.849V143.625C84.4452 142.999 84.4141 142.532 84.3546 142.221C84.2923 141.912 84.196 141.694 84.0601 141.564C83.9298 141.436 83.7542 141.323 83.5276 141.224V141.02L85.4875 140.17L85.6461 140.306V155.849C85.6461 156.552 85.6744 157.084 85.7367 157.447C85.7962 157.809 85.8953 158.064 86.0313 158.206C86.1729 158.35 86.3513 158.455 86.5638 158.523V158.772H83.5276Z" fill="white"/>
<path d="M88.5662 158.772V158.523C88.7842 158.455 88.9627 158.35 89.0986 158.206C89.2346 158.064 89.3309 157.809 89.3932 157.447C89.4612 157.084 89.4951 156.552 89.4951 155.849V150.547C89.4951 149.913 89.464 149.446 89.4045 149.143C89.3507 148.834 89.2572 148.616 89.1213 148.486C88.9853 148.35 88.7984 148.236 88.5662 148.146V147.942L90.5261 147.081L90.696 147.217V155.849C90.696 156.552 90.7243 157.084 90.7866 157.447C90.8461 157.809 90.9453 158.064 91.0812 158.206C91.2171 158.35 91.3927 158.455 91.6137 158.523V158.772H88.5662ZM89.008 144.045C89.008 143.781 89.0986 143.557 89.2799 143.376C89.4668 143.189 89.6906 143.093 89.9483 143.093C90.2259 143.093 90.4524 143.189 90.628 143.376C90.8093 143.557 90.8999 143.781 90.8999 144.045C90.8999 144.302 90.8036 144.526 90.6167 144.713C90.4354 144.894 90.2117 144.985 89.9483 144.985C89.6906 144.985 89.4668 144.894 89.2799 144.713C89.0986 144.526 89.008 144.302 89.008 144.045Z" fill="white"/>
<path d="M98.9675 158.999C98.333 158.999 97.6901 158.88 97.0415 158.648C96.3986 158.407 95.8095 158.053 95.2742 157.583C94.7361 157.115 94.3027 156.523 93.9714 155.804C93.6372 155.079 93.4729 154.235 93.4729 153.266C93.4729 152.066 93.7363 151.001 94.2659 150.072C94.8012 149.143 95.5291 148.415 96.4524 147.885C97.3729 147.35 98.4123 147.081 99.5679 147.081C100.888 147.081 101.95 147.455 102.751 148.202C103.559 148.95 103.998 149.913 104.066 151.091H94.7871C94.6964 151.522 94.6511 151.983 94.6511 152.473C94.6511 153.584 94.8692 154.555 95.3082 155.385C95.7444 156.218 96.3533 156.858 97.1322 157.311C97.9082 157.764 98.8032 157.991 99.8171 157.991C100.752 157.991 101.55 157.792 102.208 157.39C102.87 156.991 103.499 156.458 104.088 155.793L104.269 155.985C103.618 156.787 102.853 157.489 101.97 158.093C101.086 158.699 100.083 158.999 98.9675 158.999ZM94.8437 150.819H102.774C102.72 150.525 102.607 150.193 102.434 149.822C102.259 149.446 102.009 149.08 101.686 148.723C101.361 148.369 100.956 148.075 100.474 147.84C99.9899 147.599 99.415 147.477 98.7522 147.477C97.7694 147.477 96.9339 147.78 96.2485 148.384C95.5688 148.981 95.0986 149.794 94.8437 150.819Z" fill="white"/>
<path d="M114.617 158.999C112.924 158.999 111.445 158.679 110.176 158.036C108.907 157.387 107.916 156.47 107.208 155.283C106.506 154.09 106.155 152.686 106.155 151.068C106.155 149.777 106.384 148.604 106.846 147.545C107.304 146.489 107.947 145.582 108.772 144.826C109.593 144.073 110.556 143.489 111.66 143.082C112.771 142.674 113.972 142.47 115.263 142.47C116.011 142.47 116.73 142.549 117.427 142.708C118.129 142.861 118.741 143.031 119.262 143.218C119.789 143.399 120.146 143.543 120.327 143.648L120.418 146.05L120.236 146.095C119.806 145.189 119.098 144.438 118.118 143.841C117.135 143.237 115.852 142.934 114.266 142.934C113.048 142.934 111.935 143.203 110.924 143.739C109.91 144.277 109.092 145.084 108.466 146.163C107.845 147.236 107.528 148.582 107.514 150.196C107.514 151.238 107.667 152.264 107.979 153.266C108.296 154.263 108.777 155.164 109.429 155.963C110.086 156.764 110.893 157.401 111.853 157.877C112.819 158.353 113.949 158.591 115.24 158.591C116.433 158.591 117.52 158.305 118.503 157.73C119.492 157.149 120.225 156.212 120.701 154.92L120.928 154.943L120.565 157.617C120.239 157.838 119.755 158.056 119.115 158.274C118.48 158.486 117.767 158.659 116.974 158.795C116.181 158.931 115.393 158.999 114.617 158.999Z" fill="white"/>
<path d="M128.709 158.999C128.007 158.999 127.299 158.88 126.59 158.648C125.888 158.407 125.248 158.042 124.676 157.549C124.109 157.059 123.651 156.444 123.305 155.702C122.957 154.954 122.784 154.065 122.784 153.028C122.784 151.867 123.056 150.839 123.6 149.947C124.149 149.058 124.88 148.358 125.786 147.851C126.692 147.338 127.667 147.081 128.709 147.081C129.434 147.081 130.139 147.203 130.828 147.443C131.521 147.678 132.156 148.041 132.731 148.531C133.311 149.015 133.767 149.635 134.102 150.389C134.441 151.137 134.611 152.026 134.611 153.051C134.611 154.042 134.433 154.909 134.079 155.657C133.731 156.399 133.263 157.013 132.674 157.503C132.091 157.996 131.453 158.37 130.76 158.625C130.071 158.874 129.389 158.999 128.709 158.999ZM123.985 152.156C123.985 152.944 124.112 153.717 124.37 154.479C124.633 155.235 125.004 155.923 125.48 156.54C125.962 157.152 126.525 157.645 127.168 158.013C127.817 158.384 128.522 158.568 129.287 158.568C130.176 158.568 130.932 158.364 131.553 157.957C132.179 157.549 132.657 157.002 132.991 156.314C133.323 155.62 133.49 154.841 133.49 153.98C133.49 153.227 133.357 152.468 133.093 151.703C132.827 150.933 132.462 150.23 131.994 149.596C131.524 148.956 130.966 148.44 130.318 148.055C129.675 147.67 128.972 147.477 128.211 147.477C127.304 147.477 126.534 147.681 125.899 148.089C125.271 148.497 124.795 149.058 124.472 149.766C124.146 150.468 123.985 151.267 123.985 152.156Z" fill="white"/>
<path d="M141.922 158.999C140.993 158.999 140.121 158.767 139.305 158.296C138.495 157.829 137.838 157.152 137.334 156.269C136.836 155.385 136.586 154.337 136.586 153.119C136.586 152.403 136.711 151.692 136.96 150.989C137.21 150.281 137.575 149.638 138.059 149.063C138.541 148.483 139.15 148.015 139.883 147.659C140.622 147.304 141.475 147.12 142.444 147.103C143.273 147.089 144.018 147.222 144.675 147.5C145.338 147.78 145.888 148.086 146.318 148.418V143.625C146.318 142.999 146.29 142.532 146.239 142.221C146.185 141.912 146.086 141.694 145.944 141.564C145.808 141.436 145.627 141.323 145.4 141.224V141.02L147.36 140.17L147.519 140.306V155.849C147.519 156.552 147.547 157.084 147.61 157.447C147.669 157.809 147.768 158.064 147.904 158.206C148.046 158.35 148.224 158.455 148.437 158.523V158.772H146.783C146.471 158.772 146.318 158.619 146.318 158.308V156.699C145.584 157.418 144.851 157.979 144.12 158.387C143.387 158.795 142.653 158.999 141.922 158.999ZM137.742 152.269C137.742 153.351 137.937 154.337 138.331 155.226C138.722 156.118 139.271 156.824 139.974 157.345C140.682 157.866 141.52 158.126 142.489 158.126C143.197 158.126 143.865 157.974 144.494 157.662C145.128 157.345 145.735 156.909 146.318 156.348V150.445C146.242 149.987 145.992 149.528 145.57 149.075C145.145 148.621 144.622 148.245 143.996 147.942C143.375 147.633 142.715 147.477 142.013 147.477C141.226 147.477 140.509 147.659 139.861 148.021C139.218 148.378 138.705 148.913 138.32 149.63C137.935 150.349 137.742 151.227 137.742 152.269Z" fill="white"/>
<path d="M155.515 158.999C154.881 158.999 154.238 158.88 153.589 158.648C152.946 158.407 152.357 158.053 151.822 157.583C151.284 157.115 150.851 156.523 150.519 155.804C150.185 155.079 150.021 154.235 150.021 153.266C150.021 152.066 150.284 151.001 150.814 150.072C151.349 149.143 152.077 148.415 153 147.885C153.921 147.35 154.96 147.081 156.116 147.081C157.436 147.081 158.498 147.455 159.299 148.202C160.106 148.95 160.545 149.913 160.613 151.091H151.335C151.244 151.522 151.199 151.983 151.199 152.473C151.199 153.584 151.417 154.555 151.856 155.385C152.292 156.218 152.901 156.858 153.68 157.311C154.456 157.764 155.351 157.991 156.365 157.991C157.3 157.991 158.098 157.792 158.755 157.39C159.418 156.991 160.047 156.458 160.636 155.793L160.817 155.985C160.166 156.787 159.401 157.489 158.517 158.093C157.634 158.699 156.631 158.999 155.515 158.999ZM151.392 150.819H159.322C159.268 150.525 159.155 150.193 158.982 149.822C158.806 149.446 158.557 149.08 158.234 148.723C157.909 148.369 157.504 148.075 157.022 147.84C156.538 147.599 155.963 147.477 155.3 147.477C154.317 147.477 153.482 147.78 152.796 148.384C152.117 148.981 151.646 149.794 151.392 150.819Z" fill="white"/>
<path d="M166.871 158.999C165.857 159.013 164.979 158.9 164.232 158.659C163.484 158.41 162.952 158.189 162.634 157.991L162.464 155.408L162.657 155.362C163.116 156.436 163.745 157.251 164.538 157.809C165.336 158.362 166.271 158.636 167.336 158.636C168.052 158.636 168.673 158.444 169.194 158.059C169.721 157.673 169.987 157.09 169.987 156.303C169.987 155.844 169.868 155.459 169.636 155.147C169.409 154.83 169.109 154.575 168.741 154.377C168.37 154.173 167.973 154.003 167.551 153.867C167.126 153.725 166.724 153.584 166.339 153.448C165.71 153.23 165.121 153.006 164.572 152.779C164.028 152.547 163.589 152.23 163.257 151.828C162.932 151.42 162.77 150.862 162.77 150.151C162.77 149.516 162.94 148.97 163.28 148.508C163.626 148.049 164.096 147.698 164.685 147.455C165.28 147.205 165.942 147.081 166.667 147.081C167.528 147.081 168.265 147.16 168.877 147.319C169.494 147.472 169.964 147.613 170.281 147.749L170.372 149.924L170.191 149.97C169.851 149.109 169.33 148.46 168.627 148.021C167.931 147.585 167.183 147.364 166.384 147.364C165.537 147.364 164.866 147.551 164.368 147.919C163.869 148.282 163.62 148.803 163.62 149.482C163.62 150.035 163.793 150.488 164.141 150.842C164.487 151.199 164.917 151.485 165.433 151.703C165.945 151.915 166.455 152.105 166.962 152.269C167.375 152.405 167.812 152.55 168.265 152.7C168.718 152.844 169.14 153.034 169.534 153.266C169.924 153.493 170.242 153.793 170.485 154.161C170.735 154.532 170.859 154.994 170.859 155.544C170.859 156.269 170.678 156.889 170.315 157.401C169.953 157.917 169.469 158.308 168.865 158.58C168.259 158.843 167.596 158.982 166.871 158.999Z" fill="white"/>
<path d="M44.9145 125.539H13.0347C13.0347 121.665 13.6068 117.609 14.7567 113.372C15.9037 109.135 17.3907 104.938 19.2203 100.774C21.0556 96.6052 22.9957 92.6939 25.0434 89.0375C27.0883 85.3754 29.0114 82.1778 30.8099 79.4418C32.0249 77.5782 33.3504 75.7118 34.7863 73.8453C36.2194 71.9817 37.6214 70.186 38.9894 68.464C37.6214 63.9409 36.2931 60.5309 35.0016 58.234C33.7101 55.9398 31.8436 54.7899 29.4051 54.7899V51.9803C34.8571 51.9803 39.6493 52.7026 43.7816 54.1442C47.911 55.5801 51.4654 57.4834 54.4421 59.854C57.4245 62.2189 59.8829 64.8727 61.8173 67.8183C63.7574 70.7638 65.2302 73.7433 66.2356 76.7569C68.5297 83.6449 70.433 90.2129 71.9454 96.458C73.455 102.706 75.2875 108.342 77.44 113.372C78.7995 116.462 80.6461 118.17 82.9799 118.493C85.3136 118.81 87.3415 118.071 89.0635 116.272L90.8988 118.221C88.7463 121.234 86.1067 123.336 82.9799 124.52C79.8587 125.704 76.9358 126.299 74.2112 126.299C70.2602 126.299 66.6888 125.33 63.494 123.387C60.2992 121.447 57.5859 118.918 55.3598 115.797C53.1308 112.67 51.4088 109.348 50.1938 105.827H34.1406C35.3641 109.71 36.9275 113.372 38.8308 116.816C40.7341 120.26 42.7619 123.169 44.9145 125.539ZM49.3328 103.244C47.7467 98.2904 46.1833 93.014 44.6426 87.4174C43.1018 81.8152 41.5412 76.502 39.9637 71.4775C39.3123 72.415 38.6637 73.3128 38.0151 74.1738C37.3722 75.0348 36.7264 75.9695 36.0778 76.9721C33.6364 80.637 32.3081 84.7834 32.09 89.4113C31.8776 94.0421 32.3449 98.653 33.4948 103.244H49.3328Z" fill="white"/>
<mask id="mask14_12_2" style="mask-type:luminance" maskUnits="userSpaceOnUse" x="0" y="63" width="55" height="85">
<path d="M0 63.0798H54.3792V147.186H0V63.0798Z" fill="white"/>
</mask>
<g mask="url(#mask14_12_2)">
<mask id="mask15_12_2" style="mask-type:luminance" maskUnits="userSpaceOnUse" x="-4" y="63" width="63" height="84">
<path d="M37.4338 63.5924L58.5992 134.594L17.3815 146.88L-3.78394 75.8787L37.4338 63.5924Z" fill="white"/>
</mask>
<g mask="url(#mask15_12_2)">
<mask id="mask16_12_2" style="mask-type:luminance" maskUnits="userSpaceOnUse" x="0" y="63" width="55" height="84">
<path d="M54.2404 119.974L37.4338 63.5924L0.560791 90.4534L17.3673 146.835L54.2404 119.974Z" fill="white"/>
</mask>
<g mask="url(#mask16_12_2)">
<mask id="mask17_12_2" style="mask-type:luminance" maskUnits="userSpaceOnUse" x="0" y="63" width="55" height="85">
<path d="M54.3792 63.0798H0V147.186H54.3792V63.0798Z" fill="white"/>
</mask>
<g mask="url(#mask17_12_2)">
<mask id="mask18_12_2" style="mask-type:luminance" maskUnits="userSpaceOnUse" x="0" y="63" width="55" height="84">
<path d="M0.52124 63.5443H54.2915V146.897H0.52124V63.5443Z" fill="white"/>
</mask>
<g mask="url(#mask18_12_2)">
<mask id="mask19_12_2" style="mask-type:luminance" maskUnits="userSpaceOnUse" x="-4" y="63" width="63" height="84">
<path d="M37.434 63.5925L58.5994 134.594L17.3817 146.88L-3.78369 75.8788L37.434 63.5925Z" fill="white"/>
</mask>
<g mask="url(#mask19_12_2)">
<mask id="mask20_12_2" style="mask-type:luminance" maskUnits="userSpaceOnUse" x="0" y="63" width="55" height="84">
<path d="M54.2406 119.974L37.4341 63.5925L0.561035 90.4535L17.3676 146.835L54.2406 119.974Z" fill="white"/>
</mask>
<g mask="url(#mask20_12_2)">
<path d="M37.434 63.5925L58.5994 134.594L17.3817 146.88L-3.78369 75.8788L37.434 63.5925Z" fill="#1E293B"/>
</g>
</g>
</g>
</g>
</g>
</g>
</g>
</svg>
