<svg width="201" height="200" viewBox="0 0 201 200" fill="none" xmlns="http://www.w3.org/2000/svg">
<rect width="200" height="200" fill="white"/>
<path d="M73.1271 125.378H41.2473C41.2473 121.504 41.8194 117.448 42.9693 113.211C44.1164 108.974 45.6033 104.776 47.4329 100.613C49.2682 96.4439 51.2083 92.5325 53.256 88.8761C55.3009 85.214 57.224 82.0164 59.0225 79.2804C60.2375 77.4168 61.563 75.5504 62.999 73.6839C64.4321 71.8203 65.8341 70.0247 67.202 68.3027C65.8341 63.7796 64.5057 60.3695 63.2142 58.0726C61.9227 55.7785 60.0563 54.6286 57.6177 54.6286V51.819C63.0698 51.819 67.8619 52.5412 71.9942 53.9828C76.1236 55.4188 79.6781 57.322 82.6548 59.6926C85.6371 62.0575 88.0955 64.7114 90.03 67.6569C91.97 70.6024 93.4428 73.582 94.4483 76.5955C96.7424 83.4835 98.6457 90.0515 100.158 96.2966C101.668 102.545 103.5 108.181 105.653 113.211C107.012 116.301 108.859 118.009 111.193 118.331C113.526 118.649 115.554 117.909 117.276 116.111L119.111 118.06C116.959 121.073 114.319 123.175 111.193 124.359C108.071 125.542 105.148 126.137 102.424 126.137C98.4729 126.137 94.9014 125.169 91.7066 123.226C88.5119 121.286 85.7986 118.756 83.5724 115.635C81.3434 112.508 79.6214 109.186 78.4064 105.666H62.3532C63.5768 109.549 65.1402 113.211 67.0434 116.655C68.9467 120.099 70.9746 123.008 73.1271 125.378ZM77.5454 103.083C75.9593 98.1291 74.3959 92.8526 72.8552 87.2561C71.3145 81.6539 69.7539 76.3406 68.1763 71.3162C67.5249 72.2536 66.8763 73.1515 66.2277 74.0125C65.5848 74.8735 64.9391 75.8081 64.2905 76.8107C61.8491 80.4757 60.5208 84.6221 60.3027 89.25C60.0903 93.8807 60.5576 98.4916 61.7075 103.083H77.5454Z" fill="black"/>
<mask id="mask0_2_152" style="mask-type:luminance" maskUnits="userSpaceOnUse" x="22" y="63" width="68" height="82">
<path d="M22.4768 63.6298H89.1819V144.836H22.4768V63.6298Z" fill="white"/>
</mask>
<g mask="url(#mask0_2_152)">
<mask id="mask1_2_152" style="mask-type:luminance" maskUnits="userSpaceOnUse" x="22" y="62" width="67" height="85">
<path d="M22.9753 68.8213L80.3963 62.5139L88.9214 140.126L31.5004 146.433L22.9753 68.8213Z" fill="white"/>
</mask>
<g mask="url(#mask1_2_152)">
<mask id="mask2_2_152" style="mask-type:luminance" maskUnits="userSpaceOnUse" x="22" y="64" width="67" height="81">
<path d="M66.0397 64.0914L22.9753 68.8213L45.8514 144.819L88.9186 140.089L66.0397 64.0914Z" fill="white"/>
</mask>
<g mask="url(#mask2_2_152)">
<mask id="mask3_2_152" style="mask-type:luminance" maskUnits="userSpaceOnUse" x="22" y="63" width="68" height="82">
<path d="M89.1822 63.6298H22.4771V144.836H89.1822V63.6298Z" fill="white"/>
</mask>
<g mask="url(#mask3_2_152)">
<mask id="mask4_2_152" style="mask-type:luminance" maskUnits="userSpaceOnUse" x="22" y="63" width="67" height="82">
<path d="M22.97 63.9781H88.9217V144.836H22.97V63.9781Z" fill="white"/>
</mask>
<g mask="url(#mask4_2_152)">
<mask id="mask5_2_152" style="mask-type:luminance" maskUnits="userSpaceOnUse" x="22" y="62" width="67" height="85">
<path d="M22.9756 68.8213L80.3966 62.5139L88.9217 140.126L31.5007 146.433L22.9756 68.8213Z" fill="white"/>
</mask>
<g mask="url(#mask5_2_152)">
<mask id="mask6_2_152" style="mask-type:luminance" maskUnits="userSpaceOnUse" x="22" y="64" width="67" height="81">
<path d="M66.0399 64.0914L22.9756 68.8213L45.8517 144.819L88.9188 140.089L66.0399 64.0914Z" fill="white"/>
</mask>
<g mask="url(#mask6_2_152)">
<path d="M22.9756 68.8213L80.3966 62.5139L88.9217 140.126L31.5007 146.433L22.9756 68.8213Z" fill="white"/>
</g>
</g>
</g>
</g>
</g>
</g>
</g>
<path d="M155.861 78.9633C153.21 78.9633 150.822 78.3572 148.701 77.1393C146.585 75.9158 144.628 74.3722 142.832 72.5057C141.042 70.6336 139.371 68.7105 137.825 66.7393C136.284 64.768 134.757 63.046 133.248 61.5733C131.744 60.1005 130.2 59.1319 128.614 58.6617C127.034 58.1944 125.352 58.5343 123.562 59.6813C121.477 60.9728 120.395 63.451 120.321 67.1131C120.254 70.7781 121.098 75.1397 122.859 80.1981C124.618 85.2594 127.147 90.482 130.45 95.8661C134.035 101.539 137.768 106.226 141.643 109.925C145.523 113.619 149.188 115.862 152.632 116.655C155.863 117.448 158.806 117.323 161.457 116.281C164.114 115.239 166.487 113.624 168.572 111.432C170.656 109.243 172.344 106.889 173.636 104.374L175.788 105.564C173.845 109.583 171.098 113.154 167.541 116.281C163.989 119.402 159.99 121.827 155.543 123.554C151.094 125.276 146.463 126.137 141.654 126.137C136.624 126.137 131.9 125.169 127.481 123.226C123.069 121.286 119.194 118.612 115.858 115.205C112.519 111.792 109.899 107.841 107.996 103.355C106.092 98.8683 105.141 94.0393 105.141 88.8648C105.141 83.6988 106.092 78.8726 107.996 74.3864C109.899 69.9001 112.519 65.9548 115.858 62.5476C119.194 59.1347 123.069 56.4752 127.481 54.5719C131.9 52.6687 136.624 51.717 141.654 51.717C144.379 51.717 146.854 52.1334 149.074 52.9632C151.301 53.7874 153.348 54.7532 155.215 55.8635C157.087 56.9737 158.812 57.9452 160.392 58.775C161.97 59.5992 163.44 60.0099 164.799 60.0099C167.456 60.0099 169.198 59.3131 170.022 57.914C170.852 56.5092 171.268 54.6229 171.268 52.2495H173.636C174.066 55.195 174.117 58.2312 173.794 61.358C173.469 64.4792 172.661 67.368 171.37 70.0247C170.078 72.6842 168.175 74.8395 165.66 76.4935C163.151 78.1419 159.885 78.9633 155.861 78.9633Z" fill="#818CF8"/>
<mask id="mask7_2_152" style="mask-type:luminance" maskUnits="userSpaceOnUse" x="123" y="2" width="78" height="84">
<path d="M123.985 2H200.115V85.3814H123.985V2Z" fill="white"/>
</mask>
<g mask="url(#mask7_2_152)">
<mask id="mask8_2_152" style="mask-type:luminance" maskUnits="userSpaceOnUse" x="124" y="-2" width="76" height="91">
<path d="M124.341 12.1111L182.686 -1.08154L199.894 75.0408L141.55 88.2306L124.341 12.1111Z" fill="white"/>
</mask>
<g mask="url(#mask8_2_152)">
<mask id="mask9_2_152" style="mask-type:luminance" maskUnits="userSpaceOnUse" x="124" y="2" width="76" height="84">
<path d="M168.598 2.10474L124.341 12.1111L155.638 85.0443L199.894 75.038L168.598 2.10474Z" fill="white"/>
</mask>
<g mask="url(#mask9_2_152)">
<mask id="mask10_2_152" style="mask-type:luminance" maskUnits="userSpaceOnUse" x="123" y="2" width="78" height="84">
<path d="M200.115 2H123.985V85.3814H200.115V2Z" fill="white"/>
</mask>
<g mask="url(#mask10_2_152)">
<mask id="mask11_2_152" style="mask-type:luminance" maskUnits="userSpaceOnUse" x="124" y="2" width="76" height="84">
<path d="M124.245 2.02832H199.943V85.2086H124.245V2.02832Z" fill="white"/>
</mask>
<g mask="url(#mask11_2_152)">
<mask id="mask12_2_152" style="mask-type:luminance" maskUnits="userSpaceOnUse" x="124" y="-2" width="76" height="91">
<path d="M124.341 12.1111L182.686 -1.08154L199.894 75.0408L141.55 88.2306L124.341 12.1111Z" fill="white"/>
</mask>
<g mask="url(#mask12_2_152)">
<mask id="mask13_2_152" style="mask-type:luminance" maskUnits="userSpaceOnUse" x="124" y="2" width="76" height="84">
<path d="M168.598 2.10474L124.341 12.1111L155.638 85.0443L199.894 75.038L168.598 2.10474Z" fill="white"/>
</mask>
<g mask="url(#mask13_2_152)">
<path d="M124.341 12.1111L182.686 -1.08154L199.894 75.0408L141.55 88.2306L124.341 12.1111Z" fill="white"/>
</g>
</g>
</g>
</g>
</g>
</g>
</g>
<path d="M42.6684 147.336C42.4107 146.673 42.1756 146.178 41.966 145.852C41.7621 145.521 41.5723 145.291 41.3996 145.161C41.2325 145.025 41.0739 144.934 40.9237 144.889V144.628H43.756V144.889C43.5351 144.934 43.3963 145.025 43.3368 145.161C43.2745 145.291 43.2943 145.521 43.3935 145.852C43.4983 146.178 43.688 146.673 43.9599 147.336L45.3647 150.723L46.5656 147.404C46.829 146.665 46.9536 146.079 46.9394 145.648C46.9224 145.218 46.7384 144.965 46.3843 144.889V144.628H48.7521V144.889C48.5708 144.934 48.3811 145.031 48.1856 145.172C47.9959 145.308 47.8004 145.546 47.5965 145.886C47.3983 146.22 47.1802 146.719 46.9394 147.381L45.58 151.177L48.8767 159.107L53.0911 147.381C53.3545 146.656 53.4649 146.079 53.4196 145.648C53.38 145.218 53.1647 144.965 52.7739 144.889V144.628H55.2776V144.889C55.0963 144.934 54.9066 145.031 54.7111 145.172C54.5214 145.308 54.3259 145.546 54.122 145.886C53.9238 146.22 53.7057 146.719 53.4649 147.381L48.6388 160.772H48.2309L44.8436 152.57L41.4902 160.772H41.0824L35.9843 147.381C35.7407 146.719 35.5198 146.22 35.3159 145.886C35.1176 145.546 34.9364 145.308 34.7721 145.172C34.6135 145.031 34.4606 144.934 34.3076 144.889V144.628H37.2078V144.889C36.9869 144.934 36.8453 145.031 36.7773 145.172C36.7094 145.308 36.7207 145.546 36.8113 145.886C36.9076 146.22 37.0776 146.719 37.3211 147.381L41.7961 159.186L44.651 152.128L42.6684 147.336Z" fill="black"/>
<path d="M61.7222 160.999C61.0198 160.999 60.3117 160.88 59.6037 160.648C58.9013 160.407 58.2612 160.042 57.6891 159.549C57.1226 159.059 56.6638 158.444 56.3183 157.702C55.9699 156.954 55.7971 156.065 55.7971 155.028C55.7971 153.867 56.069 152.839 56.6128 151.947C57.1623 151.058 57.893 150.358 58.7993 149.851C59.7056 149.338 60.6799 149.081 61.7222 149.081C62.4472 149.081 63.1525 149.203 63.8407 149.443C64.5346 149.678 65.169 150.041 65.744 150.531C66.3246 151.015 66.7806 151.635 67.1148 152.389C67.4547 153.137 67.6246 154.026 67.6246 155.051C67.6246 156.042 67.4462 156.909 67.0921 157.657C66.7438 158.399 66.2764 159.013 65.6873 159.503C65.1039 159.996 64.4666 160.37 63.7727 160.625C63.0845 160.874 62.4019 160.999 61.7222 160.999ZM56.998 154.156C56.998 154.944 57.1254 155.717 57.3832 156.479C57.6466 157.235 58.0176 157.923 58.4934 158.54C58.9749 159.152 59.5385 159.645 60.1814 160.013C60.83 160.384 61.5353 160.568 62.3 160.568C63.1893 160.568 63.9455 160.364 64.5658 159.957C65.1917 159.549 65.6703 159.002 66.0045 158.314C66.3359 157.62 66.503 156.841 66.503 155.98C66.503 155.227 66.3699 154.468 66.1065 153.703C65.8403 152.933 65.4749 152.23 65.0076 151.596C64.5374 150.956 63.9795 150.44 63.3309 150.055C62.688 149.67 61.9856 149.477 61.2237 149.477C60.3174 149.477 59.547 149.681 58.9126 150.089C58.2838 150.497 57.808 151.058 57.4851 151.766C57.1594 152.468 56.998 153.267 56.998 154.156Z" fill="black"/>
<path d="M75.5252 160.999C74.8228 160.999 74.1147 160.88 73.4066 160.648C72.7042 160.407 72.0642 160.042 71.492 159.549C70.9256 159.059 70.4668 158.444 70.1212 157.702C69.7729 156.954 69.6001 156.065 69.6001 155.028C69.6001 153.867 69.872 152.839 70.4158 151.947C70.9652 151.058 71.696 150.358 72.6023 149.851C73.5086 149.338 74.4829 149.081 75.5252 149.081C76.2502 149.081 76.9554 149.203 77.6437 149.443C78.3376 149.678 78.972 150.041 79.547 150.531C80.1276 151.015 80.5836 151.635 80.9178 152.389C81.2576 153.137 81.4276 154.026 81.4276 155.051C81.4276 156.042 81.2491 156.909 80.8951 157.657C80.5467 158.399 80.0794 159.013 79.4903 159.503C78.9069 159.996 78.2696 160.37 77.5757 160.625C76.8875 160.874 76.2049 160.999 75.5252 160.999ZM70.801 154.156C70.801 154.944 70.9284 155.717 71.1862 156.479C71.4496 157.235 71.8206 157.923 72.2964 158.54C72.7779 159.152 73.3415 159.645 73.9844 160.013C74.633 160.384 75.3382 160.568 76.1029 160.568C76.9923 160.568 77.7485 160.364 78.3687 159.957C78.9947 159.549 79.4733 159.002 79.8075 158.314C80.1389 157.62 80.306 156.841 80.306 155.98C80.306 155.227 80.1729 154.468 79.9095 153.703C79.6432 152.933 79.2779 152.23 78.8106 151.596C78.3404 150.956 77.7825 150.44 77.1339 150.055C76.491 149.67 75.7886 149.477 75.0267 149.477C74.1204 149.477 73.35 149.681 72.7156 150.089C72.0868 150.497 71.611 151.058 71.2881 151.766C70.9624 152.468 70.801 153.267 70.801 154.156Z" fill="black"/>
<path d="M83.5276 160.772V160.523C83.7372 160.455 83.9128 160.35 84.0487 160.206C84.1903 160.064 84.2923 159.809 84.3546 159.447C84.4141 159.084 84.4452 158.552 84.4452 157.849V145.625C84.4452 144.999 84.4141 144.532 84.3546 144.221C84.2923 143.912 84.196 143.694 84.0601 143.564C83.9298 143.436 83.7542 143.323 83.5276 143.224V143.02L85.4875 142.17L85.6461 142.306V157.849C85.6461 158.552 85.6744 159.084 85.7367 159.447C85.7962 159.809 85.8953 160.064 86.0313 160.206C86.1729 160.35 86.3513 160.455 86.5638 160.523V160.772H83.5276Z" fill="black"/>
<path d="M88.5662 160.772V160.523C88.7842 160.455 88.9627 160.35 89.0986 160.206C89.2346 160.064 89.3309 159.809 89.3932 159.447C89.4612 159.084 89.4951 158.552 89.4951 157.849V152.547C89.4951 151.913 89.464 151.446 89.4045 151.143C89.3507 150.834 89.2572 150.616 89.1213 150.486C88.9853 150.35 88.7984 150.236 88.5662 150.146V149.942L90.5261 149.081L90.696 149.217V157.849C90.696 158.552 90.7243 159.084 90.7866 159.447C90.8461 159.809 90.9453 160.064 91.0812 160.206C91.2171 160.35 91.3927 160.455 91.6137 160.523V160.772H88.5662ZM89.008 146.045C89.008 145.781 89.0986 145.557 89.2799 145.376C89.4668 145.189 89.6906 145.093 89.9483 145.093C90.2259 145.093 90.4524 145.189 90.628 145.376C90.8093 145.557 90.8999 145.781 90.8999 146.045C90.8999 146.302 90.8036 146.526 90.6167 146.713C90.4354 146.894 90.2117 146.985 89.9483 146.985C89.6906 146.985 89.4668 146.894 89.2799 146.713C89.0986 146.526 89.008 146.302 89.008 146.045Z" fill="black"/>
<path d="M98.9675 160.999C98.333 160.999 97.6901 160.88 97.0415 160.648C96.3986 160.407 95.8095 160.053 95.2742 159.583C94.7361 159.115 94.3027 158.523 93.9714 157.804C93.6372 157.079 93.4729 156.235 93.4729 155.266C93.4729 154.066 93.7363 153.001 94.2659 152.072C94.8012 151.143 95.5291 150.415 96.4524 149.885C97.3729 149.35 98.4123 149.081 99.5679 149.081C100.888 149.081 101.95 149.455 102.751 150.202C103.559 150.95 103.998 151.913 104.066 153.091H94.7871C94.6964 153.522 94.6511 153.983 94.6511 154.473C94.6511 155.584 94.8692 156.555 95.3082 157.385C95.7444 158.218 96.3533 158.858 97.1322 159.311C97.9082 159.764 98.8032 159.991 99.8171 159.991C100.752 159.991 101.55 159.792 102.208 159.39C102.87 158.991 103.499 158.458 104.088 157.793L104.269 157.985C103.618 158.787 102.853 159.489 101.97 160.093C101.086 160.699 100.083 160.999 98.9675 160.999ZM94.8437 152.819H102.774C102.72 152.525 102.607 152.193 102.434 151.822C102.259 151.446 102.009 151.08 101.686 150.723C101.361 150.369 100.956 150.075 100.474 149.84C99.9899 149.599 99.415 149.477 98.7522 149.477C97.7694 149.477 96.9339 149.78 96.2485 150.384C95.5688 150.981 95.0986 151.794 94.8437 152.819Z" fill="black"/>
<path d="M114.617 160.999C112.924 160.999 111.445 160.679 110.176 160.036C108.907 159.387 107.916 158.47 107.208 157.283C106.506 156.09 106.155 154.686 106.155 153.068C106.155 151.777 106.384 150.604 106.846 149.545C107.304 148.489 107.947 147.582 108.772 146.826C109.593 146.073 110.556 145.489 111.66 145.082C112.771 144.674 113.972 144.47 115.263 144.47C116.011 144.47 116.73 144.549 117.427 144.708C118.129 144.861 118.741 145.031 119.262 145.218C119.789 145.399 120.146 145.543 120.327 145.648L120.418 148.05L120.236 148.095C119.806 147.189 119.098 146.438 118.118 145.841C117.135 145.237 115.852 144.934 114.266 144.934C113.048 144.934 111.935 145.203 110.924 145.739C109.91 146.277 109.092 147.084 108.466 148.163C107.845 149.236 107.528 150.582 107.514 152.196C107.514 153.238 107.667 154.264 107.979 155.266C108.296 156.263 108.777 157.164 109.429 157.963C110.086 158.764 110.893 159.401 111.853 159.877C112.819 160.353 113.949 160.591 115.24 160.591C116.433 160.591 117.52 160.305 118.503 159.73C119.492 159.149 120.225 158.212 120.701 156.92L120.928 156.943L120.565 159.617C120.239 159.838 119.755 160.056 119.115 160.274C118.48 160.486 117.767 160.659 116.974 160.795C116.181 160.931 115.393 160.999 114.617 160.999Z" fill="black"/>
<path d="M128.709 160.999C128.007 160.999 127.299 160.88 126.59 160.648C125.888 160.407 125.248 160.042 124.676 159.549C124.109 159.059 123.651 158.444 123.305 157.702C122.957 156.954 122.784 156.065 122.784 155.028C122.784 153.867 123.056 152.839 123.6 151.947C124.149 151.058 124.88 150.358 125.786 149.851C126.692 149.338 127.667 149.081 128.709 149.081C129.434 149.081 130.139 149.203 130.828 149.443C131.521 149.678 132.156 150.041 132.731 150.531C133.311 151.015 133.767 151.635 134.102 152.389C134.441 153.137 134.611 154.026 134.611 155.051C134.611 156.042 134.433 156.909 134.079 157.657C133.731 158.399 133.263 159.013 132.674 159.503C132.091 159.996 131.453 160.37 130.76 160.625C130.071 160.874 129.389 160.999 128.709 160.999ZM123.985 154.156C123.985 154.944 124.112 155.717 124.37 156.479C124.633 157.235 125.004 157.923 125.48 158.54C125.962 159.152 126.525 159.645 127.168 160.013C127.817 160.384 128.522 160.568 129.287 160.568C130.176 160.568 130.932 160.364 131.553 159.957C132.179 159.549 132.657 159.002 132.991 158.314C133.323 157.62 133.49 156.841 133.49 155.98C133.49 155.227 133.357 154.468 133.093 153.703C132.827 152.933 132.462 152.23 131.994 151.596C131.524 150.956 130.966 150.44 130.318 150.055C129.675 149.67 128.972 149.477 128.211 149.477C127.304 149.477 126.534 149.681 125.899 150.089C125.271 150.497 124.795 151.058 124.472 151.766C124.146 152.468 123.985 153.267 123.985 154.156Z" fill="black"/>
<path d="M141.922 160.999C140.993 160.999 140.121 160.767 139.305 160.296C138.495 159.829 137.838 159.152 137.334 158.269C136.836 157.385 136.586 156.337 136.586 155.119C136.586 154.403 136.711 153.692 136.96 152.989C137.21 152.281 137.575 151.638 138.059 151.063C138.541 150.483 139.15 150.015 139.883 149.659C140.622 149.304 141.475 149.12 142.444 149.103C143.273 149.089 144.018 149.222 144.675 149.5C145.338 149.78 145.888 150.086 146.318 150.418V145.625C146.318 144.999 146.29 144.532 146.239 144.221C146.185 143.912 146.086 143.694 145.944 143.564C145.808 143.436 145.627 143.323 145.4 143.224V143.02L147.36 142.17L147.519 142.306V157.849C147.519 158.552 147.547 159.084 147.61 159.447C147.669 159.809 147.768 160.064 147.904 160.206C148.046 160.35 148.224 160.455 148.437 160.523V160.772H146.783C146.471 160.772 146.318 160.619 146.318 160.308V158.699C145.584 159.418 144.851 159.979 144.12 160.387C143.387 160.795 142.653 160.999 141.922 160.999ZM137.742 154.269C137.742 155.351 137.937 156.337 138.331 157.226C138.722 158.118 139.271 158.824 139.974 159.345C140.682 159.866 141.52 160.126 142.489 160.126C143.197 160.126 143.865 159.974 144.494 159.662C145.128 159.345 145.735 158.909 146.318 158.348V152.445C146.242 151.987 145.992 151.528 145.57 151.075C145.145 150.621 144.622 150.245 143.996 149.942C143.375 149.633 142.715 149.477 142.013 149.477C141.226 149.477 140.509 149.659 139.861 150.021C139.218 150.378 138.705 150.913 138.32 151.63C137.935 152.349 137.742 153.227 137.742 154.269Z" fill="black"/>
<path d="M155.515 160.999C154.881 160.999 154.238 160.88 153.589 160.648C152.946 160.407 152.357 160.053 151.822 159.583C151.284 159.115 150.851 158.523 150.519 157.804C150.185 157.079 150.021 156.235 150.021 155.266C150.021 154.066 150.284 153.001 150.814 152.072C151.349 151.143 152.077 150.415 153 149.885C153.921 149.35 154.96 149.081 156.116 149.081C157.436 149.081 158.498 149.455 159.299 150.202C160.106 150.95 160.545 151.913 160.613 153.091H151.335C151.244 153.522 151.199 153.983 151.199 154.473C151.199 155.584 151.417 156.555 151.856 157.385C152.292 158.218 152.901 158.858 153.68 159.311C154.456 159.764 155.351 159.991 156.365 159.991C157.3 159.991 158.098 159.792 158.755 159.39C159.418 158.991 160.047 158.458 160.636 157.793L160.817 157.985C160.166 158.787 159.401 159.489 158.517 160.093C157.634 160.699 156.631 160.999 155.515 160.999ZM151.392 152.819H159.322C159.268 152.525 159.155 152.193 158.982 151.822C158.806 151.446 158.557 151.08 158.234 150.723C157.909 150.369 157.504 150.075 157.022 149.84C156.538 149.599 155.963 149.477 155.3 149.477C154.317 149.477 153.482 149.78 152.796 150.384C152.117 150.981 151.646 151.794 151.392 152.819Z" fill="black"/>
<path d="M166.871 160.999C165.857 161.013 164.979 160.9 164.232 160.659C163.484 160.41 162.952 160.189 162.634 159.991L162.464 157.408L162.657 157.362C163.116 158.436 163.745 159.251 164.538 159.809C165.336 160.362 166.271 160.636 167.336 160.636C168.052 160.636 168.673 160.444 169.194 160.059C169.721 159.673 169.987 159.09 169.987 158.303C169.987 157.844 169.868 157.459 169.636 157.147C169.409 156.83 169.109 156.575 168.741 156.377C168.37 156.173 167.973 156.003 167.551 155.867C167.126 155.725 166.724 155.584 166.339 155.448C165.71 155.23 165.121 155.006 164.572 154.779C164.028 154.547 163.589 154.23 163.257 153.828C162.932 153.42 162.77 152.862 162.77 152.151C162.77 151.516 162.94 150.97 163.28 150.508C163.626 150.049 164.096 149.698 164.685 149.455C165.28 149.205 165.942 149.081 166.667 149.081C167.528 149.081 168.265 149.16 168.877 149.319C169.494 149.472 169.964 149.613 170.281 149.749L170.372 151.924L170.191 151.97C169.851 151.109 169.33 150.46 168.627 150.021C167.931 149.585 167.183 149.364 166.384 149.364C165.537 149.364 164.866 149.551 164.368 149.919C163.869 150.282 163.62 150.803 163.62 151.482C163.62 152.035 163.793 152.488 164.141 152.842C164.487 153.199 164.917 153.485 165.433 153.703C165.945 153.915 166.455 154.105 166.962 154.269C167.375 154.405 167.812 154.55 168.265 154.7C168.718 154.844 169.14 155.034 169.534 155.266C169.924 155.493 170.242 155.793 170.485 156.161C170.735 156.532 170.859 156.994 170.859 157.544C170.859 158.269 170.678 158.889 170.315 159.401C169.953 159.917 169.469 160.308 168.865 160.58C168.259 160.843 167.596 160.982 166.871 160.999Z" fill="black"/>
<path d="M44.9145 127.539H13.0347C13.0347 123.665 13.6068 119.609 14.7567 115.372C15.9037 111.135 17.3907 106.938 19.2203 102.774C21.0556 98.6052 22.9957 94.6939 25.0434 91.0375C27.0883 87.3754 29.0114 84.1778 30.8099 81.4418C32.0249 79.5782 33.3504 77.7118 34.7863 75.8453C36.2194 73.9817 37.6214 72.186 38.9894 70.464C37.6214 65.9409 36.2931 62.5309 35.0016 60.234C33.7101 57.9398 31.8436 56.7899 29.4051 56.7899V53.9803C34.8571 53.9803 39.6493 54.7026 43.7816 56.1442C47.911 57.5801 51.4654 59.4834 54.4421 61.854C57.4245 64.2189 59.8829 66.8727 61.8173 69.8183C63.7574 72.7638 65.2302 75.7433 66.2356 78.7569C68.5297 85.6449 70.433 92.2129 71.9454 98.458C73.455 104.706 75.2875 110.342 77.44 115.372C78.7995 118.462 80.6461 120.17 82.9799 120.493C85.3136 120.81 87.3415 120.071 89.0635 118.272L90.8988 120.221C88.7463 123.234 86.1067 125.336 82.9799 126.52C79.8587 127.704 76.9358 128.299 74.2112 128.299C70.2602 128.299 66.6888 127.33 63.494 125.387C60.2992 123.447 57.5859 120.918 55.3598 117.797C53.1308 114.67 51.4088 111.348 50.1938 107.827H34.1406C35.3641 111.71 36.9275 115.372 38.8308 118.816C40.7341 122.26 42.7619 125.169 44.9145 127.539ZM49.3328 105.244C47.7467 100.29 46.1833 95.014 44.6426 89.4174C43.1018 83.8152 41.5412 78.502 39.9637 73.4775C39.3123 74.415 38.6637 75.3128 38.0151 76.1738C37.3722 77.0348 36.7264 77.9695 36.0778 78.9721C33.6364 82.637 32.3081 86.7834 32.09 91.4113C31.8776 96.0421 32.3449 100.653 33.4948 105.244H49.3328Z" fill="black"/>
<mask id="mask14_2_152" style="mask-type:luminance" maskUnits="userSpaceOnUse" x="0" y="65" width="55" height="85">
<path d="M0 65.0798H54.3792V149.186H0V65.0798Z" fill="white"/>
</mask>
<g mask="url(#mask14_2_152)">
<mask id="mask15_2_152" style="mask-type:luminance" maskUnits="userSpaceOnUse" x="-4" y="65" width="63" height="84">
<path d="M37.4338 65.5924L58.5992 136.594L17.3815 148.88L-3.78394 77.8787L37.4338 65.5924Z" fill="white"/>
</mask>
<g mask="url(#mask15_2_152)">
<mask id="mask16_2_152" style="mask-type:luminance" maskUnits="userSpaceOnUse" x="0" y="65" width="55" height="84">
<path d="M54.2404 121.974L37.4338 65.5924L0.560791 92.4534L17.3673 148.835L54.2404 121.974Z" fill="white"/>
</mask>
<g mask="url(#mask16_2_152)">
<mask id="mask17_2_152" style="mask-type:luminance" maskUnits="userSpaceOnUse" x="0" y="65" width="55" height="85">
<path d="M54.3792 65.0798H0V149.186H54.3792V65.0798Z" fill="white"/>
</mask>
<g mask="url(#mask17_2_152)">
<mask id="mask18_2_152" style="mask-type:luminance" maskUnits="userSpaceOnUse" x="0" y="65" width="55" height="84">
<path d="M0.521118 65.5443H54.2913V148.897H0.521118V65.5443Z" fill="white"/>
</mask>
<g mask="url(#mask18_2_152)">
<mask id="mask19_2_152" style="mask-type:luminance" maskUnits="userSpaceOnUse" x="-4" y="65" width="63" height="84">
<path d="M37.4339 65.5925L58.5993 136.594L17.3816 148.88L-3.78381 77.8788L37.4339 65.5925Z" fill="white"/>
</mask>
<g mask="url(#mask19_2_152)">
<mask id="mask20_2_152" style="mask-type:luminance" maskUnits="userSpaceOnUse" x="0" y="65" width="55" height="84">
<path d="M54.2405 121.974L37.4339 65.5925L0.560913 92.4535L17.3675 148.835L54.2405 121.974Z" fill="white"/>
</mask>
<g mask="url(#mask20_2_152)">
<path d="M37.4339 65.5925L58.5993 136.594L17.3816 148.88L-3.78381 77.8788L37.4339 65.5925Z" fill="white"/>
</g>
</g>
</g>
</g>
</g>
</g>
</g>
</svg>
