<svg width="200" height="200" viewBox="0 0 200 200" fill="none" xmlns="http://www.w3.org/2000/svg">
<rect width="200" height="200" fill="#0E172A"/>
<path d="M72.6901 139.938H41.0009C41.0009 136.086 41.5696 132.055 42.7126 127.843C43.8528 123.631 45.3309 119.459 47.1496 115.321C48.9739 111.176 50.9024 107.289 52.9379 103.654C54.9705 100.014 56.8821 96.8353 58.6698 94.1157C59.8776 92.2632 61.1952 90.4079 62.6225 88.5526C64.0471 86.7001 65.4407 84.9152 66.8005 83.2035C65.4407 78.7074 64.1203 75.3178 62.8365 73.0346C61.5527 70.7542 59.6974 69.6112 57.2734 69.6112V66.8184C62.6929 66.8184 67.4564 67.5363 71.564 68.9693C75.6687 70.3966 79.2019 72.2885 82.1608 74.6449C85.1254 76.9957 87.569 79.6337 89.4919 82.5616C91.4204 85.4895 92.8844 88.4512 93.8838 91.4467C96.1642 98.2936 98.0561 104.822 99.5595 111.03C101.06 117.241 102.882 122.843 105.021 127.843C106.373 130.915 108.208 132.612 110.528 132.933C112.848 133.249 114.864 132.514 116.575 130.726L118.4 132.663C116.26 135.658 113.636 137.747 110.528 138.924C107.425 140.101 104.52 140.692 101.812 140.692C97.8844 140.692 94.3343 139.729 91.1586 137.798C87.9829 135.87 85.2858 133.356 83.073 130.253C80.8573 127.145 79.1456 123.843 77.9379 120.343H61.9806C63.1969 124.203 64.7509 127.843 66.6428 131.267C68.5347 134.69 70.5505 137.581 72.6901 139.938ZM77.082 117.776C75.5054 112.852 73.9514 107.607 72.4198 102.044C70.8883 96.4749 69.3371 91.1934 67.7689 86.199C67.1214 87.1309 66.4767 88.0233 65.832 88.8792C65.1929 89.735 64.551 90.6641 63.9063 91.6607C61.4795 95.3037 60.1591 99.4253 59.9424 104.026C59.7312 108.629 60.1957 113.212 61.3388 117.776H77.082Z" fill="white"/>
<mask id="mask0_13_222" style="mask-type:luminance" maskUnits="userSpaceOnUse" x="22" y="78" width="67" height="82">
<path d="M22.3423 78.5585H88.6487V159.279H22.3423V78.5585Z" fill="white"/>
</mask>
<g mask="url(#mask0_13_222)">
<mask id="mask1_13_222" style="mask-type:luminance" maskUnits="userSpaceOnUse" x="22" y="77" width="67" height="84">
<path d="M22.8379 83.719L79.9156 77.4493L88.3897 154.597L31.312 160.867L22.8379 83.719Z" fill="white"/>
</mask>
<g mask="url(#mask1_13_222)">
<mask id="mask2_13_222" style="mask-type:luminance" maskUnits="userSpaceOnUse" x="22" y="79" width="67" height="81">
<path d="M65.6448 79.0175L22.8379 83.719L45.5772 159.262L88.3869 154.561L65.6448 79.0175Z" fill="white"/>
</mask>
<g mask="url(#mask2_13_222)">
<mask id="mask3_13_222" style="mask-type:luminance" maskUnits="userSpaceOnUse" x="22" y="78" width="67" height="82">
<path d="M88.6487 78.5586H22.3423V159.279H88.6487V78.5586Z" fill="white"/>
</mask>
<g mask="url(#mask3_13_222)">
<mask id="mask4_13_222" style="mask-type:luminance" maskUnits="userSpaceOnUse" x="22" y="78" width="67" height="82">
<path d="M22.8322 78.9048H88.3897V159.279H22.8322V78.9048Z" fill="white"/>
</mask>
<g mask="url(#mask4_13_222)">
<mask id="mask5_13_222" style="mask-type:luminance" maskUnits="userSpaceOnUse" x="22" y="77" width="67" height="84">
<path d="M22.8379 83.719L79.9156 77.4493L88.3897 154.597L31.312 160.867L22.8379 83.719Z" fill="white"/>
</mask>
<g mask="url(#mask5_13_222)">
<mask id="mask6_13_222" style="mask-type:luminance" maskUnits="userSpaceOnUse" x="22" y="79" width="67" height="81">
<path d="M65.6448 79.0175L22.8379 83.7191L45.5772 159.262L88.3869 154.561L65.6448 79.0175Z" fill="white"/>
</mask>
<g mask="url(#mask6_13_222)">
<path d="M22.8379 83.719L79.9156 77.4493L88.3897 154.597L31.312 160.867L22.8379 83.719Z" fill="#0E172A"/>
</g>
</g>
</g>
</g>
</g>
</g>
</g>
<path d="M154.929 93.8004C152.294 93.8004 149.92 93.1979 147.812 91.9873C145.709 90.7711 143.763 89.2367 141.978 87.3815C140.199 85.5205 138.538 83.6089 137.001 81.6495C135.469 79.69 133.952 77.9783 132.451 76.5143C130.956 75.0504 129.422 74.0875 127.845 73.6202C126.274 73.1557 124.602 73.4935 122.823 74.6337C120.751 75.9175 119.675 78.3809 119.602 82.0211C119.535 85.6641 120.374 89.9997 122.125 95.0279C123.873 100.059 126.387 105.25 129.67 110.602C133.234 116.241 136.945 120.901 140.796 124.577C144.653 128.249 148.296 130.478 151.719 131.267C154.932 132.055 157.857 131.931 160.492 130.895C163.133 129.859 165.492 128.254 167.564 126.075C169.636 123.899 171.314 121.559 172.598 119.059L174.737 120.242C172.806 124.237 170.075 127.787 166.539 130.895C163.009 133.997 159.033 136.407 154.613 138.125C150.191 139.836 145.588 140.692 140.807 140.692C135.807 140.692 131.111 139.729 126.719 137.798C122.333 135.87 118.482 133.212 115.165 129.825C111.846 126.433 109.242 122.505 107.35 118.046C105.458 113.586 104.512 108.786 104.512 103.643C104.512 98.5076 105.458 93.7103 107.35 89.2508C109.242 84.7914 111.846 80.8696 115.165 77.4828C118.482 74.0904 122.333 71.4468 126.719 69.5549C131.111 67.663 135.807 66.717 140.807 66.717C143.515 66.717 145.976 67.1309 148.183 67.9558C150.396 68.775 152.432 69.7351 154.287 70.8387C156.148 71.9423 157.862 72.9079 159.433 73.7328C161.001 74.5521 162.463 74.9603 163.814 74.9603C166.455 74.9603 168.186 74.2677 169.005 72.877C169.83 71.4806 170.244 69.6056 170.244 67.2463H172.598C173.026 70.1742 173.076 73.1923 172.755 76.3004C172.432 79.4029 171.629 82.2745 170.345 84.9152C169.062 87.5588 167.17 89.7013 164.67 91.3454C162.175 92.9839 158.929 93.8004 154.929 93.8004Z" fill="#818CF8"/>
<mask id="mask7_13_222" style="mask-type:luminance" maskUnits="userSpaceOnUse" x="123" y="17" width="76" height="84">
<path d="M123.243 17.2973H198.919V100.18H123.243V17.2973Z" fill="white"/>
</mask>
<g mask="url(#mask7_13_222)">
<mask id="mask8_13_222" style="mask-type:luminance" maskUnits="userSpaceOnUse" x="123" y="14" width="76" height="90">
<path d="M123.598 27.348L181.593 14.2343L198.699 89.9015L140.704 103.012L123.598 27.348Z" fill="white"/>
</mask>
<g mask="url(#mask8_13_222)">
<mask id="mask9_13_222" style="mask-type:luminance" maskUnits="userSpaceOnUse" x="123" y="17" width="76" height="83">
<path d="M167.59 17.4014L123.598 27.3479L154.707 99.8451L198.699 89.8986L167.59 17.4014Z" fill="white"/>
</mask>
<g mask="url(#mask9_13_222)">
<mask id="mask10_13_222" style="mask-type:luminance" maskUnits="userSpaceOnUse" x="123" y="17" width="76" height="84">
<path d="M198.919 17.2973H123.243V100.18H198.919V17.2973Z" fill="white"/>
</mask>
<g mask="url(#mask10_13_222)">
<mask id="mask11_13_222" style="mask-type:luminance" maskUnits="userSpaceOnUse" x="123" y="17" width="76" height="84">
<path d="M123.502 17.3254H198.747V100.008H123.502V17.3254Z" fill="white"/>
</mask>
<g mask="url(#mask11_13_222)">
<mask id="mask12_13_222" style="mask-type:luminance" maskUnits="userSpaceOnUse" x="123" y="14" width="76" height="90">
<path d="M123.598 27.348L181.593 14.2343L198.699 89.9015L140.704 103.012L123.598 27.348Z" fill="white"/>
</mask>
<g mask="url(#mask12_13_222)">
<mask id="mask13_13_222" style="mask-type:luminance" maskUnits="userSpaceOnUse" x="123" y="17" width="76" height="83">
<path d="M167.59 17.4014L123.598 27.3479L154.707 99.8451L198.699 89.8986L167.59 17.4014Z" fill="white"/>
</mask>
<g mask="url(#mask13_13_222)">
<path d="M123.598 27.348L181.593 14.2343L198.699 89.9015L140.704 103.012L123.598 27.348Z" fill="#0E172A"/>
</g>
</g>
</g>
</g>
</g>
</g>
</g>
<path d="M44.6459 142.086H12.9567C12.9567 138.235 13.5254 134.203 14.6684 129.992C15.8086 125.78 17.2866 121.608 19.1053 117.469C20.9296 113.325 22.8581 109.437 24.8936 105.803C26.9263 102.162 28.8379 98.9838 30.6256 96.2642C31.8334 94.4117 33.1509 92.5564 34.5783 90.7012C36.0028 88.8487 37.3964 87.0638 38.7562 85.3521C37.3964 80.856 36.076 77.4664 34.7923 75.1831C33.5085 72.9027 31.6532 71.7597 29.2292 71.7597V68.9669C34.6487 68.9669 39.4122 69.6848 43.5197 71.1178C47.6245 72.5452 51.1577 74.4371 54.1166 76.7935C57.0811 79.1443 59.5248 81.7822 61.4477 84.7102C63.3762 87.6381 64.8401 90.5998 65.8396 93.5953C68.12 100.442 70.0118 106.971 71.5152 113.179C73.0158 119.389 74.8373 124.992 76.9769 129.992C78.3283 133.063 80.1639 134.761 82.4837 135.082C84.8035 135.397 86.8193 134.662 88.531 132.875L90.3553 134.812C88.2157 137.807 85.5918 139.896 82.4837 141.073C79.3812 142.25 76.4758 142.841 73.7675 142.841C69.8401 142.841 66.29 141.878 63.1143 139.947C59.9387 138.018 57.2416 135.504 55.0287 132.402C52.8131 129.293 51.1014 125.991 49.8936 122.492H33.9364C35.1526 126.351 36.7067 129.992 38.5986 133.415C40.4905 136.839 42.5062 139.73 44.6459 142.086ZM49.0377 119.924C47.4612 115 45.9071 109.755 44.3756 104.192C42.8441 98.6235 41.2928 93.3419 39.7247 88.3476C39.0772 89.2794 38.4325 90.1719 37.7877 91.0277C37.1487 91.8836 36.5068 92.8126 35.8621 93.8093C33.4353 97.4523 32.1149 101.574 31.8981 106.174C31.687 110.777 32.1515 115.361 33.2945 119.924H49.0377Z" fill="white"/>
<mask id="mask14_13_222" style="mask-type:luminance" maskUnits="userSpaceOnUse" x="0" y="80" width="55" height="84">
<path d="M0 80H54.0541V163.604H0V80Z" fill="white"/>
</mask>
<g mask="url(#mask14_13_222)">
<mask id="mask15_13_222" style="mask-type:luminance" maskUnits="userSpaceOnUse" x="-4" y="80" width="63" height="84">
<path d="M37.2101 80.5096L58.2489 151.087L17.2776 163.3L-3.76123 92.7224L37.2101 80.5096Z" fill="white"/>
</mask>
<g mask="url(#mask15_13_222)">
<mask id="mask16_13_222" style="mask-type:luminance" maskUnits="userSpaceOnUse" x="0" y="80" width="54" height="84">
<path d="M53.9161 136.554L37.21 80.5096L0.557434 107.21L17.2635 163.255L53.9161 136.554Z" fill="white"/>
</mask>
<g mask="url(#mask16_13_222)">
<mask id="mask17_13_222" style="mask-type:luminance" maskUnits="userSpaceOnUse" x="0" y="80" width="55" height="84">
<path d="M54.0541 80H0V163.604H54.0541V80Z" fill="white"/>
</mask>
<g mask="url(#mask17_13_222)">
<mask id="mask18_13_222" style="mask-type:luminance" maskUnits="userSpaceOnUse" x="0" y="80" width="54" height="84">
<path d="M0.518005 80.4617H53.9668V163.316H0.518005V80.4617Z" fill="white"/>
</mask>
<g mask="url(#mask18_13_222)">
<mask id="mask19_13_222" style="mask-type:luminance" maskUnits="userSpaceOnUse" x="-4" y="80" width="63" height="84">
<path d="M37.21 80.5096L58.2488 151.087L17.2776 163.3L-3.76129 92.7224L37.21 80.5096Z" fill="white"/>
</mask>
<g mask="url(#mask19_13_222)">
<mask id="mask20_13_222" style="mask-type:luminance" maskUnits="userSpaceOnUse" x="0" y="80" width="54" height="84">
<path d="M53.916 136.554L37.21 80.5096L0.557373 107.21L17.2635 163.255L53.916 136.554Z" fill="white"/>
</mask>
<g mask="url(#mask20_13_222)">
<path d="M37.21 80.5096L58.2488 151.087L17.2776 163.3L-3.76129 92.7224L37.21 80.5096Z" fill="#0E172A"/>
</g>
</g>
</g>
</g>
</g>
</g>
</g>
</svg>
